<svg xmlns="http://www.w3.org/2000/svg" xmlns:xlink="http://www.w3.org/1999/xlink" width="40" zoomAndPan="magnify" viewBox="0 0 30 30.000001" height="40" preserveAspectRatio="xMidYMid meet" version="1.0"><defs><clipPath id="id1"><path d="M 6 4 L 24 4 L 24 24.898438 L 6 24.898438 Z M 6 4 " clip-rule="nonzero"/></clipPath></defs><g clip-path="url(#id1)"><path fill="rgb(100%, 100%, 100%)" d="M 12.625 4.835938 C 11.488281 4.972656 9.800781 5.4375 9.097656 5.804688 C 8.425781 6.144531 7.425781 7.074219 7.019531 7.714844 C 6.34375 8.808594 6.074219 10.839844 6.453125 12.125 C 6.640625 12.777344 7.832031 14.0625 8.371094 14.199219 C 8.707031 14.28125 8.707031 14.28125 8.03125 14.949219 C 5.480469 17.460938 6.128906 22.589844 9.167969 24.023438 L 9.871094 24.351562 L 20.953125 24.351562 L 21.65625 23.996094 C 23.035156 23.300781 23.574219 22.292969 23.574219 20.394531 C 23.574219 18.578125 23.101562 17.609375 21.84375 16.820312 L 21.414062 16.546875 L 21.953125 16.148438 C 22.695312 15.605469 23.261719 14.773438 23.574219 13.734375 C 23.953125 12.507812 23.953125 9.789062 23.585938 8.726562 C 22.914062 6.773438 21.375 5.613281 18.660156 5.027344 C 17.539062 4.78125 13.945312 4.660156 12.625 4.835938 Z M 18.820312 6.050781 C 19.941406 6.335938 20.804688 6.707031 21.398438 7.167969 C 21.574219 7.320312 21.695312 7.429688 21.671875 7.429688 C 21.628906 7.429688 20.777344 7.441406 19.765625 7.46875 C 17.605469 7.511719 17.644531 7.484375 16.527344 9.230469 L 15.835938 10.296875 L 13.296875 10.296875 C 11.179688 10.296875 10.734375 10.335938 10.558594 10.511719 C 10.382812 10.675781 10.339844 11.046875 10.339844 12.191406 L 10.339844 13.667969 L 9.640625 13.542969 C 8.855469 13.40625 8.03125 12.902344 7.585938 12.300781 C 7.34375 11.972656 7.304688 11.714844 7.304688 10.664062 C 7.304688 9.898438 7.371094 9.230469 7.492188 8.957031 L 7.667969 8.519531 L 10.234375 8.519531 C 12.773438 8.519531 12.800781 8.519531 13.203125 8.863281 C 13.757812 9.339844 14.3125 9.3125 14.824219 8.792969 C 15.175781 8.425781 15.230469 8.300781 15.160156 7.878906 C 15.039062 7.183594 14.648438 6.816406 14 6.816406 C 13.621094 6.816406 13.367188 6.910156 13.136719 7.128906 C 12.824219 7.429688 12.691406 7.441406 10.691406 7.46875 C 9.53125 7.484375 8.585938 7.457031 8.585938 7.414062 C 8.585938 7.046875 10.503906 6.132812 11.707031 5.941406 C 13.191406 5.695312 13.460938 5.683594 15.609375 5.722656 C 17.121094 5.765625 18.011719 5.859375 18.820312 6.050781 Z M 22.65625 8.890625 C 22.75 9.109375 22.84375 9.871094 22.871094 10.59375 L 22.925781 11.933594 L 21.925781 11.945312 C 20.523438 11.960938 20.496094 11.972656 19.660156 12.820312 L 18.914062 13.597656 L 15.160156 13.613281 L 11.421875 13.640625 L 11.421875 11.386719 L 13.894531 11.359375 L 16.351562 11.320312 L 17.28125 9.914062 L 18.226562 8.519531 L 22.492188 8.519531 Z M 22.765625 13.1875 C 22.765625 13.542969 22.117188 14.746094 21.738281 15.097656 C 20.699219 16.082031 19.132812 16.300781 17.902344 15.644531 C 17.511719 15.441406 17.105469 15.140625 16.984375 14.960938 L 16.796875 14.664062 L 19.347656 14.664062 L 20.078125 13.855469 L 20.804688 13.050781 L 21.792969 13.039062 C 22.480469 13.023438 22.765625 13.078125 22.765625 13.1875 Z M 15.5 15.085938 C 15.730469 15.398438 15.742188 15.496094 15.609375 15.769531 C 15.511719 15.945312 15.363281 16.136719 15.285156 16.191406 C 15.203125 16.246094 14.242188 16.300781 13.148438 16.300781 C 11.355469 16.300781 11.152344 16.328125 11.03125 16.558594 C 10.9375 16.738281 10.9375 16.875 11.058594 17.023438 C 11.207031 17.226562 11.785156 17.253906 16.082031 17.28125 L 20.941406 17.324219 L 21.480469 17.664062 L 22.019531 18.007812 L 18.753906 18.074219 C 15.324219 18.140625 14.972656 18.210938 15.285156 18.730469 C 15.417969 18.933594 15.796875 18.960938 19.023438 19.003906 L 22.601562 19.03125 L 22.683594 19.382812 C 22.738281 19.574219 22.738281 19.78125 22.695312 19.847656 C 22.640625 19.929688 21.128906 19.984375 18.96875 19.984375 C 15.851562 19.984375 15.324219 20.011719 15.257812 20.191406 C 15.203125 20.300781 15.242188 20.488281 15.335938 20.597656 C 15.472656 20.777344 16.09375 20.804688 19.132812 20.804688 C 22.980469 20.804688 22.859375 20.777344 22.683594 21.445312 L 22.601562 21.757812 L 18.984375 21.757812 C 15.890625 21.757812 15.351562 21.785156 15.285156 21.964844 C 15.242188 22.074219 15.242188 22.265625 15.285156 22.375 C 15.351562 22.550781 15.863281 22.578125 18.671875 22.578125 C 21.738281 22.578125 21.96875 22.589844 21.804688 22.808594 C 21.695312 22.933594 21.375 23.136719 21.074219 23.273438 C 20.589844 23.507812 20.078125 23.535156 15.40625 23.535156 C 10.316406 23.535156 10.273438 23.535156 9.597656 23.207031 C 8.816406 22.851562 8.128906 22.113281 7.722656 21.226562 C 7.492188 20.707031 7.4375 20.339844 7.4375 19.097656 C 7.4375 17.363281 7.683594 16.628906 8.558594 15.699219 C 9.476562 14.746094 9.789062 14.664062 12.691406 14.703125 L 15.242188 14.730469 Z M 15.5 15.085938 " fill-opacity="1" fill-rule="nonzero"/></g></svg>